<?xml version="1.0"?>
<svg xmlns="http://www.w3.org/2000/svg" id="Layer_2" data-name="Layer 2" width="512" height="512" viewBox="0 0 64 64"><path d="M60,31H56.975A25.028,25.028,0,0,0,33,7.025V4a1,1,0,0,0-2,0V7.025A25.028,25.028,0,0,0,7.025,31H4a1,1,0,0,0,0,2H7.025A25.028,25.028,0,0,0,31,56.975V60a1,1,0,0,0,2,0V56.975A25.028,25.028,0,0,0,56.975,33H60a1,1,0,0,0,0-2Zm-5.025,0H46.949A15,15,0,0,0,33,17.051V9.025A23.027,23.027,0,0,1,54.975,31ZM41,33h3.949A13,13,0,0,1,33,44.949V41a1,1,0,0,0-2,0v3.949A13,13,0,0,1,19.051,33H23a1,1,0,0,0,0-2H19.051A13,13,0,0,1,31,19.051V23a1,1,0,0,0,2,0V19.051A13,13,0,0,1,44.949,31H41a1,1,0,0,0,0,2ZM31,9.025v8.026A15,15,0,0,0,17.051,31H9.025A23.027,23.027,0,0,1,31,9.025ZM9.025,33h8.026A15,15,0,0,0,31,46.949v8.026A23.027,23.027,0,0,1,9.025,33ZM33,54.975V46.949A15,15,0,0,0,46.949,33h8.026A23.027,23.027,0,0,1,33,54.975Z"/></svg>
