<?xml version="1.0" encoding="UTF-8" standalone="no"?>
<!-- Created with Inkscape (http://www.inkscape.org/) -->

<svg
   version="1.1"
   id="svg7548"
   xml:space="preserve"
   width="682.66669"
   height="682.66669"
   viewBox="0 0 682.66669 682.66669"
   xmlns="http://www.w3.org/2000/svg"
   xmlns:svg="http://www.w3.org/2000/svg"><defs
     id="defs7552"><clipPath
       clipPathUnits="userSpaceOnUse"
       id="clipPath7562"><path
         d="M 0,512 H 512 V 0 H 0 Z"
         id="path7560" /></clipPath></defs><g
     id="g7554"
     transform="matrix(1.3333333,0,0,-1.3333333,0,682.66667)"><g
       id="g7556"><g
         id="g7558"
         clip-path="url(#clipPath7562)"><g
           id="g7564"
           transform="translate(286.8066,145.9736)"><path
             d="M 0,0 C 2.362,-0.056 4.753,-0.325 7.149,-0.823 23.555,-4.23 35.449,-17.344 38.103,-32.92"
             style="fill:none;stroke:#000000;stroke-width:15;stroke-linecap:round;stroke-linejoin:round;stroke-miterlimit:10;stroke-dasharray:none;stroke-opacity:1"
             id="path7566" /></g><g
           id="g7568"
           transform="translate(199.083,99.2695)"><path
             d="M 0,0 C 4.621,11.381 14.383,20.126 26.405,23.346"
             style="fill:none;stroke:#000000;stroke-width:15;stroke-linecap:round;stroke-linejoin:round;stroke-miterlimit:10;stroke-dasharray:none;stroke-opacity:1"
             id="path7570" /></g><g
           id="g7572"
           transform="translate(226.1104,82.4258)"><path
             d="m 0,0 c -0.324,0.348 -0.655,0.691 -0.994,1.03 -6.853,6.852 -15.593,10.658 -24.547,11.432 -4.599,16.755 -19.928,29.069 -38.144,29.069 -4.105,0 -8.065,-0.626 -11.789,-1.787"
             style="fill:none;stroke:#000000;stroke-width:15;stroke-linecap:round;stroke-linejoin:round;stroke-miterlimit:10;stroke-dasharray:none;stroke-opacity:1"
             id="path7574" /></g><g
           id="g7576"
           transform="translate(102.2363,144.6875)"><path
             d="m 0,0 c -16.599,-4.332 -28.156,-18.754 -29.421,-35.226 -18.165,-6.116 -31.253,-23.275 -31.253,-43.503 0,-7.265 1.695,-14.133 4.699,-20.24"
             style="fill:none;stroke:#000000;stroke-width:15;stroke-linecap:round;stroke-linejoin:round;stroke-miterlimit:10;stroke-dasharray:none;stroke-opacity:1"
             id="path7578" /></g><g
           id="g7580"
           transform="translate(469.7148,45.7188)"><path
             d="m 0,0 c 3.005,6.106 4.699,12.975 4.699,20.24 0,5.052 -0.816,9.912 -2.324,14.457"
             style="fill:none;stroke:#000000;stroke-width:15;stroke-linecap:round;stroke-linejoin:round;stroke-miterlimit:10;stroke-dasharray:none;stroke-opacity:1"
             id="path7582" /></g><g
           id="g7584"
           transform="translate(361.459,123.166)"><path
             d="m 0,0 c -2.556,0.519 -5.2,0.791 -7.908,0.791 -18.215,0 -33.545,-12.314 -38.144,-29.069 -8.954,-0.775 -17.694,-4.58 -24.547,-11.432 -1.958,-1.959 -3.668,-4.071 -5.13,-6.299"
             style="fill:none;stroke:#000000;stroke-width:15;stroke-linecap:round;stroke-linejoin:round;stroke-miterlimit:10;stroke-dasharray:none;stroke-opacity:1"
             id="path7586" /></g><g
           id="g7588"
           transform="translate(451.6152,105.6123)"><path
             d="m 0,0 c -2.66,1.553 -5.488,2.851 -8.454,3.85 -1.315,17.118 -13.744,32.022 -31.397,35.688 -0.498,0.104 -0.996,0.197 -1.493,0.281"
             style="fill:none;stroke:#000000;stroke-width:15;stroke-linecap:round;stroke-linejoin:round;stroke-miterlimit:10;stroke-dasharray:none;stroke-opacity:1"
             id="path7590" /></g><g
           id="g7592"
           transform="translate(83.5469,204.2168)"><path
             d="m 0,0 18.71,-43.62 c 0.624,-1.454 0.945,-3.019 0.945,-4.6 v -37.25"
             style="fill:none;stroke:#000000;stroke-width:15;stroke-linecap:round;stroke-linejoin:round;stroke-miterlimit:10;stroke-dasharray:none;stroke-opacity:1"
             id="path7594" /></g><g
           id="g7596"
           transform="translate(144.5303,221.916)"><path
             d="M 0,0 -18.349,-42.777 -36.571,-0.295"
             style="fill:none;stroke:#000000;stroke-width:15;stroke-linecap:round;stroke-linejoin:round;stroke-miterlimit:10;stroke-dasharray:none;stroke-opacity:1"
             id="path7598" /></g><g
           id="g7600"
           transform="translate(103.2021,86.0859)"><path
             d="M 0,0 V -40.367 H 45.959 V 69.911 c 0,1.581 0.321,3.146 0.944,4.6 l 18.71,43.62"
             style="fill:none;stroke:#000000;stroke-width:15;stroke-linecap:round;stroke-linejoin:round;stroke-miterlimit:10;stroke-dasharray:none;stroke-opacity:1"
             id="path7602" /></g><g
           id="g7604"
           transform="translate(146.0713,386.2988)"><path
             d="m 0,0 c -6.001,2.949 -12.752,4.605 -19.89,4.605 -22.842,0 -41.716,-16.96 -44.733,-38.974 -0.238,-1.737 -1.951,-2.837 -3.645,-2.381 -3.428,0.922 -7.103,1.24 -10.91,0.82 -13.239,-1.46 -23.965,-11.9 -25.761,-25.098 -0.497,-3.643 -0.31,-7.171 0.436,-10.489 0.369,-1.639 -0.695,-3.262 -2.357,-3.513 -17.951,-2.709 -31.711,-18.195 -31.711,-36.901 0,-20.616 16.713,-37.329 37.329,-37.329 0.654,0 1.304,0.019 1.95,0.054 1.663,0.09 3.02,-1.247 3.018,-2.913 v -0.032 c 0,-16.203 13.134,-29.338 29.337,-29.338 11.791,0 21.952,6.959 26.612,16.992 0.685,1.476 2.432,2.136 3.889,1.414 4.987,-2.471 10.604,-3.86 16.546,-3.86 5.943,0 11.559,1.389 16.546,3.86 1.457,0.722 3.204,0.062 3.889,-1.414 4.661,-10.033 14.821,-16.992 26.612,-16.992 13.755,0 25.299,9.466 28.473,22.238"
             style="fill:none;stroke:#000000;stroke-width:15;stroke-linecap:round;stroke-linejoin:round;stroke-miterlimit:10;stroke-dasharray:none;stroke-opacity:1"
             id="path7606" /></g><g
           id="g7608"
           transform="translate(343.4385,203.623)"><path
             d="m 0,0 18.456,-43.026 c 0.623,-1.453 0.944,-3.019 0.944,-4.6 v -110.278 h 45.959 v 110.278 c 0,1.581 0.322,3.147 0.946,4.6 L 85.269,1.187"
             style="fill:none;stroke:#000000;stroke-width:15;stroke-linecap:round;stroke-linejoin:round;stroke-miterlimit:10;stroke-dasharray:none;stroke-opacity:1"
             id="path7610" /></g><g
           id="g7612"
           transform="translate(404.1455,221.8652)"><path
             d="M 0,0 -18.327,-42.728 -36.83,0.412"
             style="fill:none;stroke:#000000;stroke-width:15;stroke-linecap:round;stroke-linejoin:round;stroke-miterlimit:10;stroke-dasharray:none;stroke-opacity:1"
             id="path7614" /></g><g
           id="g7616"
           transform="translate(310.7529,225.4229)"><path
             d="m 0,0 c 3.715,-11.942 14.854,-20.613 28.019,-20.613 11.791,0 21.951,6.959 26.612,16.992 0.684,1.475 2.432,2.136 3.889,1.414 4.987,-2.471 10.603,-3.86 16.545,-3.86 5.943,0 11.56,1.389 16.546,3.86 1.457,0.722 3.204,0.061 3.89,-1.414 4.66,-10.033 14.82,-16.992 26.611,-16.992 16.203,0 29.338,13.134 29.338,29.338 v 0.032 c -0.002,1.666 1.355,3.003 3.019,2.913 0.645,-0.035 1.295,-0.054 1.949,-0.054 20.616,0 37.329,16.713 37.329,37.329 0,18.706 -13.761,34.192 -31.711,36.901 -1.662,0.251 -2.726,1.874 -2.357,3.513 0.746,3.319 0.932,6.848 0.436,10.492 -1.799,13.197 -12.524,23.636 -25.763,25.096 -3.806,0.419 -7.481,0.101 -10.908,-0.821 -1.693,-0.456 -3.407,0.644 -3.645,2.381 -3.017,22.014 -21.891,38.974 -44.734,38.974 -7.137,0 -13.888,-1.656 -19.888,-4.605"
             style="fill:none;stroke:#000000;stroke-width:15;stroke-linecap:round;stroke-linejoin:round;stroke-miterlimit:10;stroke-dasharray:none;stroke-opacity:1"
             id="path7618" /></g><g
           id="g7620"
           transform="translate(202.0527,224.2793)"><path
             d="m 0,0 23.191,-54.069 c 0.802,-1.869 1.215,-3.88 1.215,-5.913 v -118.579 h 59.082 v 118.579 c 0,2.033 0.413,4.044 1.215,5.913 l 24.379,56.838"
             style="fill:none;stroke:#000000;stroke-width:15;stroke-linecap:round;stroke-linejoin:round;stroke-miterlimit:10;stroke-dasharray:none;stroke-opacity:1"
             id="path7622" /></g><g
           id="g7624"
           transform="translate(279.8047,249.5439)"><path
             d="M 0,0 -23.805,-55.498 -47.713,0.242"
             style="fill:none;stroke:#000000;stroke-width:15;stroke-linecap:round;stroke-linejoin:round;stroke-miterlimit:10;stroke-dasharray:none;stroke-opacity:1"
             id="path7626" /></g><g
           id="g7628"
           transform="translate(277.9297,461.9805)"><path
             d="m 0,0 c -6.768,2.764 -14.167,4.301 -21.93,4.301 -29.365,0 -53.629,-21.804 -57.507,-50.104 -0.305,-2.232 -2.508,-3.646 -4.685,-3.06 -4.407,1.185 -9.131,1.594 -14.024,1.054 -17.02,-1.877 -30.809,-15.298 -33.119,-32.264 -0.637,-4.683 -0.398,-9.22 0.562,-13.485 0.474,-2.107 -0.895,-4.194 -3.031,-4.516 -23.076,-3.484 -40.766,-23.39 -40.766,-47.438 0,-26.503 21.484,-47.988 47.988,-47.988 0.841,0 1.676,0.023 2.506,0.068 2.139,0.117 3.883,-1.601 3.881,-3.744 v -0.042 c 0,-20.829 16.885,-37.714 37.715,-37.714 15.158,0 28.219,8.947 34.21,21.844 0.881,1.897 3.127,2.745 5,1.817 6.411,-3.176 13.632,-4.962 21.27,-4.962 7.639,0 14.86,1.786 21.271,4.962 1.873,0.928 4.119,0.08 5,-1.817 5.991,-12.898 19.052,-21.844 34.21,-21.844 20.83,0 37.715,16.885 37.715,37.714 v 0.042 c -0.002,2.143 1.742,3.861 3.88,3.744 0.831,-0.045 1.666,-0.068 2.506,-0.068 26.504,0 47.989,21.485 47.989,47.988 0,24.048 -17.691,43.954 -40.766,47.438 -2.137,0.322 -3.505,2.409 -3.031,4.516 0.96,4.266 1.199,8.803 0.561,13.488 -2.312,16.965 -16.1,30.385 -33.12,32.262 -4.892,0.539 -9.615,0.13 -14.022,-1.055 -2.177,-0.586 -4.38,0.828 -4.686,3.06 -1.296,9.451 -4.874,18.171 -10.147,25.603"
             style="fill:none;stroke:#000000;stroke-width:15;stroke-linecap:round;stroke-linejoin:round;stroke-miterlimit:10;stroke-dasharray:none;stroke-opacity:1"
             id="path7630" /></g><g
           id="g7632"
           transform="translate(23.7139,45.7188)"><path
             d="M 0,0 H 467.572"
             style="fill:none;stroke:#000000;stroke-width:15;stroke-linecap:round;stroke-linejoin:round;stroke-miterlimit:10;stroke-dasharray:none;stroke-opacity:1"
             id="path7634" /></g><g
           id="g7636"
           transform="translate(317.8652,49.4004)"><path
             d="M 0,0 -2.491,9.168"
             style="fill:none;stroke:#000000;stroke-width:15;stroke-linecap:round;stroke-linejoin:round;stroke-miterlimit:10;stroke-dasharray:none;stroke-opacity:1"
             id="path7638" /></g><g
           id="g7640"
           transform="translate(332.2168,58.3936)"><path
             d="M 0,0 -2.546,-9.138"
             style="fill:none;stroke:#000000;stroke-width:15;stroke-linecap:round;stroke-linejoin:round;stroke-miterlimit:10;stroke-dasharray:none;stroke-opacity:1"
             id="path7642" /></g><g
           id="g7644"
           transform="translate(181.2998,49.4004)"><path
             d="M 0,0 -2.491,9.168"
             style="fill:none;stroke:#000000;stroke-width:15;stroke-linecap:round;stroke-linejoin:round;stroke-miterlimit:10;stroke-dasharray:none;stroke-opacity:1"
             id="path7646" /></g><g
           id="g7648"
           transform="translate(195.6514,58.3936)"><path
             d="M 0,0 -2.546,-9.138"
             style="fill:none;stroke:#000000;stroke-width:15;stroke-linecap:round;stroke-linejoin:round;stroke-miterlimit:10;stroke-dasharray:none;stroke-opacity:1"
             id="path7650" /></g><g
           id="g7652"
           transform="translate(73.5352,49.4004)"><path
             d="M 0,0 -2.491,9.168"
             style="fill:none;stroke:#000000;stroke-width:15;stroke-linecap:round;stroke-linejoin:round;stroke-miterlimit:10;stroke-dasharray:none;stroke-opacity:1"
             id="path7654" /></g><g
           id="g7656"
           transform="translate(447.1211,58.3936)"><path
             d="M 0,0 -2.547,-9.138"
             style="fill:none;stroke:#000000;stroke-width:15;stroke-linecap:round;stroke-linejoin:round;stroke-miterlimit:10;stroke-dasharray:none;stroke-opacity:1"
             id="path7658" /></g><g
           id="g7660"
           transform="translate(189.9014,333.9443)"><path
             d="m 0,0 c 2.74,-6.662 9.288,-11.355 16.937,-11.355 7.651,0 14.198,4.693 16.938,11.355"
             style="fill:none;stroke:#000000;stroke-width:15;stroke-linecap:round;stroke-linejoin:round;stroke-miterlimit:10;stroke-dasharray:none;stroke-opacity:1"
             id="path7662" /></g><g
           id="g7664"
           transform="translate(263.8584,303.5312)"><path
             d="m 0,0 c 4.104,-9.978 13.909,-17.007 25.367,-17.007 11.457,0 21.263,7.029 25.366,17.007"
             style="fill:none;stroke:#000000;stroke-width:15;stroke-linecap:round;stroke-linejoin:round;stroke-miterlimit:10;stroke-dasharray:none;stroke-opacity:1"
             id="path7666" /></g><g
           id="g7668"
           transform="translate(84.5547,276.3555)"><path
             d="m 0,0 c 2.74,-6.662 9.287,-11.355 16.937,-11.355 7.65,0 14.198,4.693 16.938,11.355"
             style="fill:none;stroke:#000000;stroke-width:15;stroke-linecap:round;stroke-linejoin:round;stroke-miterlimit:10;stroke-dasharray:none;stroke-opacity:1"
             id="path7670" /></g><g
           id="g7672"
           transform="translate(405.8496,295.0273)"><path
             d="m 0,0 c 3.838,-9.332 13.011,-15.908 23.728,-15.908 10.716,0 19.888,6.576 23.727,15.908"
             style="fill:none;stroke:#000000;stroke-width:15;stroke-linecap:round;stroke-linejoin:round;stroke-miterlimit:10;stroke-dasharray:none;stroke-opacity:1"
             id="path7674" /></g><g
           id="g7676"
           transform="translate(241.7705,377.4131)"><path
             d="m 0,0 c 3.838,-9.332 13.01,-15.908 23.728,-15.908 10.716,0 19.888,6.576 23.727,15.908"
             style="fill:none;stroke:#000000;stroke-width:15;stroke-linecap:round;stroke-linejoin:round;stroke-miterlimit:10;stroke-dasharray:none;stroke-opacity:1"
             id="path7678" /></g></g></g></g></svg>
