<svg id="owl" enable-background="new 0 0 300 300" height="512" viewBox="0 0 300 300" width="512" xmlns="http://www.w3.org/2000/svg"><g><path d="m265.533 105.241c-.374-2.178-2.447-3.638-4.618-3.267l-18.748 3.214c-4.962.851-9.706 2.245-14.186 4.103-10.929-8.641-24.461-13.375-38.39-13.375-11.593 0-22.985 3.304-32.776 9.404-2.329-6.781-7.925-12.01-14.866-13.858.028-.515.042-1.031.042-1.546 0-15.439-12.561-28-28-28-1.252 0-2.483.091-3.692.251-.112-15.373-9.216-29.377-23.272-35.729-1.517-.685-3.299-.36-4.476.816-1.177 1.177-1.502 2.959-.817 4.476 1.864 4.125 2.809 8.484 2.809 12.955 0 17.387-14.146 31.533-31.533 31.533-4.472 0-8.831-.945-12.955-2.809-1.516-.684-3.299-.36-4.476.816s-1.502 2.959-.816 4.476c5.781 12.792 17.902 21.464 31.621 23.011-1.775 3.135-2.794 6.752-2.794 10.605 0 11.91 9.69 21.6 21.6 21.6h47.229c-3.149 7.494-4.829 15.624-4.829 24v112c0 2.209 1.791 4 4 4h2 41.454c42.208 0 76.546-34.338 76.546-76.546v-39.454c0-15.907-6.129-31.094-16.991-42.566 2.871-.976 5.845-1.75 8.919-2.277l18.748-3.214c2.178-.374 3.641-2.442 3.267-4.619zm-45.599 8.054c-13.085 7.68-23.122 19.692-28.343 33.953-.32-.874-.664-1.735-1.02-2.592-.031-.074-.063-.147-.094-.221-.364-.867-.744-1.725-1.143-2.572-.002-.004-.004-.008-.006-.012-5.956-12.635-15.842-23.112-28.263-29.777 8.536-5.354 18.278-8.156 28.525-8.156 10.847-.001 21.42 3.296 30.344 9.377zm-172.275-29.441c1.765.243 3.551.364 5.353.364 21.798 0 39.533-17.734 39.533-39.533 0-1.801-.122-3.586-.364-5.352 6.342 5.875 10.13 14.218 10.13 23.119 0 .686-.03 1.376-.074 2.061-9.582 4.452-16.245 14.161-16.245 25.404 0 .271.004.542.013.815-.271-.01-.542-.016-.813-.016-4.066 0-7.873 1.131-11.124 3.093-1.089.113-2.193.175-3.289.175-8.902.001-17.245-3.788-23.12-10.13zm88.732 42.063h-51.2c-7.499 0-13.6-6.101-13.6-13.6s6.101-13.6 13.6-13.6c1.433 0 2.865.232 4.255.691 1.38.454 2.898.125 3.966-.861s1.517-2.474 1.172-3.885c-.394-1.616-.593-3.212-.593-4.745 0-11.028 8.972-20 20-20s20 8.972 20 20c0 1.361-.138 2.724-.411 4.051-.233 1.135.037 2.315.741 3.235s1.772 1.49 2.928 1.562c5.243.327 9.724 3.638 11.684 8.292-2.571-.773-5.212-1.405-7.919-1.869l-18.748-3.214c-2.177-.379-4.246 1.089-4.618 3.267-.374 2.177 1.089 4.245 3.267 4.618l18.748 3.214c1.977.339 3.911.786 5.807 1.313-3.467 3.505-6.461 7.38-8.97 11.528-.036.001-.072.003-.109.003zm-.8 139.953v-77.546c10.651 18.839 30.858 31.592 54 31.592.25 0 .496-.016.746-.019-5.44 25.862-28.118 45.053-54.746 45.973zm108-68.499c0 37.796-30.75 68.546-68.546 68.546h-10.052c17.304-9.412 30.103-26.359 33.623-46.664 19.304-2.828 35.736-14.585 44.975-30.928zm-54 14.546c-29.776 0-54-24.224-54-54 0-15.556 6.628-30.149 18.248-40.42 13.103 5.959 23.197 16.36 28.805 28.999.083.187.169.373.251.561.188.436.366.877.543 1.318.114.283.227.566.336.851.156.408.307.819.455 1.231.117.329.231.659.342.99.131.39.262.78.385 1.173.117.376.227.755.337 1.134.105.361.214.721.312 1.084.166.617.32 1.24.466 1.865.081.347.155.696.23 1.045.112.522.222 1.045.32 1.573.058.315.108.633.161.95.079.472.156.945.224 1.421.046.326.088.653.129.98.06.483.115.968.163 1.454.031.314.062.628.089.944.044.535.078 1.072.108 1.61.015.268.034.534.045.803.033.808.054 1.619.054 2.434 0 2.209 1.791 4 4 4s4-1.791 4-4c0-.788.021-1.572.052-2.353.014-.337.036-.672.055-1.008.023-.409.05-.817.082-1.223.038-.469.079-.937.128-1.404.02-.194.043-.387.065-.58 2.185-18.91 13.689-35.76 30.71-44.604 10.772 10.199 16.906 24.327 16.906 39.172-.001 29.776-24.225 54-54.001 54z"/><path d="m203.591 155.917c0 7.72 6.28 14 14 14s14-6.28 14-14-6.28-14-14-14-14 6.28-14 14zm20 0c0 3.309-2.691 6-6 6s-6-2.691-6-6 2.691-6 6-6 6 2.691 6 6z"/><path d="m165.591 141.917c-7.72 0-14 6.28-14 14s6.28 14 14 14 14-6.28 14-14-6.28-14-14-14zm0 20c-3.309 0-6-2.691-6-6s2.691-6 6-6 6 2.691 6 6-2.692 6-6 6z"/><path d="m166.943 54.565c.781.781 1.804 1.171 2.828 1.171s2.047-.391 2.829-1.172l2.991-2.991 2.991 2.991c.781.781 1.805 1.172 2.829 1.172 1.023 0 2.047-.391 2.828-1.171 1.562-1.562 1.562-4.095 0-5.657l-2.992-2.992 2.992-2.992c1.562-1.562 1.562-4.095 0-5.657s-4.094-1.562-5.657 0l-2.991 2.991-2.991-2.991c-1.562-1.562-4.095-1.562-5.657 0s-1.562 4.095 0 5.657l2.992 2.992-2.992 2.992c-1.562 1.562-1.562 4.095 0 5.657z"/><path d="m60.239 221.268c-1.562-1.562-4.094-1.562-5.657 0l-2.991 2.991-2.991-2.991c-1.562-1.562-4.094-1.562-5.657 0-1.562 1.562-1.562 4.095 0 5.657l2.992 2.992-2.992 2.992c-1.562 1.562-1.562 4.095 0 5.657.781.781 1.804 1.171 2.828 1.171s2.047-.391 2.829-1.172l2.991-2.991 2.991 2.991c.781.781 1.805 1.172 2.829 1.172 1.023 0 2.047-.391 2.828-1.171 1.562-1.562 1.562-4.095 0-5.657l-2.992-2.992 2.992-2.992c1.562-1.562 1.562-4.095 0-5.657z"/><path d="m241.591 80.241c2.388 0 4.324-1.936 4.324-4.324s-1.936-4.324-4.324-4.324-4.324 1.936-4.324 4.324 1.936 4.324 4.324 4.324z"/><path d="m85.591 171.592c-2.388 0-4.324 1.936-4.324 4.324s1.936 4.324 4.324 4.324 4.324-1.936 4.324-4.324-1.936-4.324-4.324-4.324z"/><path d="m257.591 251.592c-2.388 0-4.324 1.936-4.324 4.324s1.936 4.324 4.324 4.324 4.324-1.936 4.324-4.324-1.936-4.324-4.324-4.324z"/></g></svg>